<svg xmlns="http://www.w3.org/2000/svg" viewBox="0 0 512 512" role="img" aria-labelledby="title">
<title id="title">Campus Mall</title>
<rect width="512" height="512" rx="104" fill="#111111"/>
<!-- Reference CM: red C cutting through white M -->
<path d="M323 126C288 104 247 92 205 92C126 92 76 158 76 256C76 354 126 420 205 420C247 420 288 408 323 386L276 319C254 332 232 338 210 338C166 338 140 308 140 256C140 204 166 174 210 174C232 174 254 180 276 193Z" fill="#ef1b2f"/>
<path d="M235 116L310 116L350 252L390 116L465 116L465 350L394 350L394 239L361 350L339 350L306 239L306 350L235 350Z" fill="#fff"/>
<path d="M188 285L456 170L469 202L201 318Z" fill="#ef1b2f"/>
<!-- trolley -->
<g transform="translate(168 360)">
  <path d="M20 10H2" stroke="#fff" stroke-width="12" stroke-linecap="round"/>
  <path d="M12 10L30 68H142L160 28H34" fill="none" stroke="#fff" stroke-width="12" stroke-linecap="round" stroke-linejoin="round"/>
  <path d="M44 82H126" stroke="#fff" stroke-width="12" stroke-linecap="round"/>
  <circle cx="51" cy="92" r="10" fill="#ef1b2f"/>
  <circle cx="119" cy="92" r="10" fill="#ef1b2f"/>
</g>
</svg>